<svg width="25" height="22" viewBox="0 0 25 22" fill="none" xmlns="http://www.w3.org/2000/svg">
<path fill-rule="evenodd" clip-rule="evenodd" d="M23.4375 0.138672H1.5625C0.699555 0.138672 0 0.827609 0 1.67746C0 2.5273 0.699555 3.21624 1.5625 3.21624H23.4375C24.3004 3.21624 25 2.5273 25 1.67746C25 0.827609 24.3004 0.138672 23.4375 0.138672ZM23.4375 9.37117H1.5625C0.699555 9.37117 0 10.0601 0 10.9099C0 11.7598 0.699555 12.4487 1.5625 12.4487H23.4375C24.3004 12.4487 25 11.7598 25 10.9099C25 10.0601 24.3004 9.37117 23.4375 9.37117ZM1.5625 18.6039H23.4375C24.3004 18.6039 25 19.2929 25 20.1427C25 20.9926 24.3004 21.6815 23.4375 21.6815H1.5625C0.699555 21.6815 0 20.9926 0 20.1427C0 19.2929 0.699555 18.6039 1.5625 18.6039Z" fill="#AACE9B"/>
</svg>
